#!OML:ASF I:\Actors\actors\Patient Classification 2\Patient 1\Session 1\actor1.ASF
:FULLY-SPECIFIED
:DEGREES
528
root -0.5114 18.7487 5.64629 3.61756 -4.72779 -2.86946
lowerback 6.64166 -0.219391 -3.40412
upperback 1.90887 -0.553816 -1.60608
thorax -1.73773 -0.271208 0.30145
lowerneck -14.5127 -0.805301 2.56911
upperneck 32.7147 -3.1535 3.27528
head 13.4936 -0.652802 0.344197
rclavicle 1.09332e-014 7.95139e-015
rhumerus -0.549223 46.1701 -68.0944
rradius 91.6322
rwrist 13.0349
rhand -6.47816 -45.9099
rfingers 7.12502
rthumb 19.3726 -434.965
lclavicle 1.09332e-014 7.95139e-015
lhumerus -1.3805 -33.6721 68.2102
lradius 77.4087
lwrist 11.4766
lhand -9.51607 -38.6729
lfingers 7.12502
lthumb 16.4496 -9.35027
rfemur 0 0 0
rtibia 0
rfoot 0 0
rtoes 0
lfemur -6.05166 -5.62683 -12.0365
ltibia 22.5874
lfoot -24.9883 16.5684
ltoes -53.3274
529
root -0.516114 18.7476 5.64226 3.54169 -4.73101 -2.82321
lowerback 6.68951 -0.130991 -3.29549
upperback 1.89282 -0.433799 -1.68455
thorax -1.78607 -0.210826 0.150543
lowerneck -14.7685 -0.849362 2.42355
upperneck 32.937 -3.26792 3.47947
head 13.6557 -0.683459 0.43321
rclavicle -1.8487e-014 4.92986e-014
rhumerus -0.176574 46.6979 -67.0811
rradius 90.3729
rwrist 13.957
rhand -4.59037 -45.8773
rfingers 7.12502
rthumb 21.1869 -434.74
lclavicle -1.8487e-014 4.92986e-014
lhumerus -1.37521 -33.7542 68.5894
lradius 77.1533
lwrist 11.2286
lhand -9.7074 -38.282
lfingers 7.12502
lthumb 16.2654 -8.94421
rfemur 0 0 0
rtibia 0
rfoot 0 0
rtoes 0
lfemur -5.95037 -5.82604 -12.1039
ltibia 22.5518
lfoot -25.0389 16.7422
ltoes -53.2739
530
root -0.520548 18.747 5.64096 3.496 -4.77916 -2.79952
lowerback 6.71027 0.0258531 -3.29508
upperback 1.86613 -0.227376 -1.68499
thorax -1.8306 -0.107269 0.133233
lowerneck -14.9758 -0.981636 2.24898
upperneck 32.961 -3.48505 3.673
head 13.7227 -0.768193 0.5057
rclavicle -9.93923e-015 2.54444e-014
rhumerus -0.656588 47.3125 -66.555
rradius 88.9585
rwrist 14.5605
rhand -4.35836 -45.2785
rfingers 7.12502
rthumb 21.4098 -434.116
lclavicle -9.93923e-015 2.54444e-014
lhumerus -1.44977 -33.7984 69.1678
lradius 77.0816
lwrist 10.994
lhand -9.68086 -37.8379
lfingers 7.12502
lthumb 16.2909 -8.50219
rfemur 0 0 0
rtibia 0
rfoot 0 0
rtoes 0
lfemur -5.87006 -5.91065 -12.1385
ltibia 22.5277
lfoot -25.0368 16.9018
ltoes -53.3507
531
root -0.525773 18.747 5.63982 3.50585 -4.79568 -2.80376
lowerback 6.68703 0.199706 -3.37072
upperback 1.83386 0.000780147 -1.58651
thorax -1.85681 0.00710951 0.258376
lowerneck -15.1487 -1.17706 1.90609
upperneck 32.8945 -3.76459 3.94946
head 13.7492 -0.891851 0.629817
rclavicle 1.76918e-014 -2.8625e-014
rhumerus -2.29909 47.3301 -67.1013
rradius 87.5425
rwrist 15.8634
rhand -3.63477 -44.3259
rfingers 7.12502
rthumb 22.1046 -433.082
lclavicle 1.76918e-014 -2.8625e-014
lhumerus -1.60662 -33.7553 69.9033
lradius 77.2283
lwrist 10.7671
lhand -9.6679 -37.209
lfingers 7.12502
lthumb 16.3034 -7.87434
rfemur 0 0 0
rtibia 0
rfoot 0 0
rtoes 0
lfemur -5.86709 -5.98332 -12.1225
ltibia 22.5138
lfoot -25.0511 16.9999
ltoes -53.4528
532
root -0.533299 18.7463 5.63638 3.53641 -4.75473 -2.76029
lowerback 6.70802 0.380702 -3.55304
upperback 1.80546 0.230546 -1.43207
thorax -1.90555 0.122891 0.500462
lowerneck -15.3357 -1.39254 1.48906
upperneck 32.7689 -4.00031 4.0981
head 13.7507 -1.02346 0.72193
rclavicle -1.98785e-015 7.15625e-015
rhumerus -2.0563 48.4529 -65.5934
rradius 86.0876
rwrist 15.943
rhand -3.85357 -44.3317
rfingers 7.12502
rthumb 21.8946 -433.113
lclavicle -1.98785e-015 7.15625e-015
lhumerus -1.55583 -33.7375 70.6535
lradius 77.2728
lwrist 10.5542
lhand -9.90218 -36.6748
lfingers 7.12502
lthumb 16.0778 -7.32177
rfemur 0 0 0
rtibia 0
rfoot 0 0
rtoes 0
lfemur -5.94077 -5.97158 -12.1328
ltibia 22.5445
lfoot -25.0578 16.9463
ltoes -53.4396
533
root -0.540473 18.7451 5.62989 3.52999 -4.68812 -2.75356
lowerback 6.85231 0.558529 -3.65221
upperback 1.77582 0.455537 -1.27581
thorax -2.02614 0.237245 0.696945
lowerneck -15.3779 -1.57864 1.2015
upperneck 32.5113 -4.13271 4.00517
head 13.6508 -1.13189 0.711316
rclavicle 4.96962e-015 1.27222e-014
rhumerus -1.88094 49.1608 -64.1953
rradius 85.4827
rwrist 15.4502
rhand -3.94056 -44.1628
rfingers 7.12502
rthumb 21.811 -432.954
lclavicle 4.96962e-015 1.27222e-014
lhumerus -1.40937 -33.8034 71.3508
lradius 77.2483
lwrist 10.3262
lhand -10.2477 -36.2787
lfingers 7.12502
lthumb 15.7451 -6.89919
rfemur 0 0 0
rtibia 0
rfoot 0 0
rtoes 0
lfemur -6.06757 -5.8988 -12.0952
ltibia 22.7303
lfoot -25.0923 16.7687
ltoes -53.3668
